<mxfile host="65bd71144e">
    <diagram id="knNZKUU1e7rKh7l8ueio" name="Page-1">
        <mxGraphModel dx="619" dy="325" grid="1" gridSize="10" guides="1" tooltips="1" connect="1" arrows="1" fold="1" page="1" pageScale="1" pageWidth="850" pageHeight="1100" math="0" shadow="0">
            <root>
                <mxCell id="0"/>
                <mxCell id="1" parent="0"/>
                <mxCell id="2" value="public&lt;br&gt;&lt;b&gt;#Ticket&lt;/b&gt;" style="swimlane;fontStyle=0;align=center;verticalAlign=top;childLayout=stackLayout;horizontal=1;startSize=55;horizontalStack=0;resizeParent=1;resizeParentMax=0;resizeLast=0;collapsible=0;marginBottom=0;html=1;" parent="1" vertex="1">
                    <mxGeometry x="120" y="312" width="140" height="263" as="geometry"/>
                </mxCell>
                <mxCell id="3" value="attributes" style="text;html=1;strokeColor=none;fillColor=none;align=center;verticalAlign=middle;spacingLeft=4;spacingRight=4;overflow=hidden;rotatable=0;points=[[0,0.5],[1,0.5]];portConstraint=eastwest;" parent="2" vertex="1">
                    <mxGeometry y="55" width="140" height="20" as="geometry"/>
                </mxCell>
                <mxCell id="4" value="-String startLocation" style="text;html=1;strokeColor=none;fillColor=none;align=left;verticalAlign=middle;spacingLeft=4;spacingRight=4;overflow=hidden;rotatable=0;points=[[0,0.5],[1,0.5]];portConstraint=eastwest;" parent="2" vertex="1">
                    <mxGeometry y="75" width="140" height="20" as="geometry"/>
                </mxCell>
                <mxCell id="87" value="-String endLocation" style="text;html=1;strokeColor=none;fillColor=none;align=left;verticalAlign=middle;spacingLeft=4;spacingRight=4;overflow=hidden;rotatable=0;points=[[0,0.5],[1,0.5]];portConstraint=eastwest;" parent="2" vertex="1">
                    <mxGeometry y="95" width="140" height="20" as="geometry"/>
                </mxCell>
                <mxCell id="88" value="-double price" style="text;html=1;strokeColor=none;fillColor=none;align=left;verticalAlign=middle;spacingLeft=4;spacingRight=4;overflow=hidden;rotatable=0;points=[[0,0.5],[1,0.5]];portConstraint=eastwest;" parent="2" vertex="1">
                    <mxGeometry y="115" width="140" height="20" as="geometry"/>
                </mxCell>
                <mxCell id="89" value="-double maxWeight" style="text;html=1;strokeColor=none;fillColor=none;align=left;verticalAlign=middle;spacingLeft=4;spacingRight=4;overflow=hidden;rotatable=0;points=[[0,0.5],[1,0.5]];portConstraint=eastwest;" parent="2" vertex="1">
                    <mxGeometry y="135" width="140" height="20" as="geometry"/>
                </mxCell>
                <mxCell id="90" value="-Person person" style="text;html=1;strokeColor=none;fillColor=none;align=left;verticalAlign=middle;spacingLeft=4;spacingRight=4;overflow=hidden;rotatable=0;points=[[0,0.5],[1,0.5]];portConstraint=eastwest;" parent="2" vertex="1">
                    <mxGeometry y="155" width="140" height="20" as="geometry"/>
                </mxCell>
                <mxCell id="91" value="-String airline" style="text;html=1;strokeColor=none;fillColor=none;align=left;verticalAlign=middle;spacingLeft=4;spacingRight=4;overflow=hidden;rotatable=0;points=[[0,0.5],[1,0.5]];portConstraint=eastwest;" parent="2" vertex="1">
                    <mxGeometry y="175" width="140" height="20" as="geometry"/>
                </mxCell>
                <mxCell id="92" value="-String gate" style="text;html=1;strokeColor=none;fillColor=none;align=left;verticalAlign=middle;spacingLeft=4;spacingRight=4;overflow=hidden;rotatable=0;points=[[0,0.5],[1,0.5]];portConstraint=eastwest;" parent="2" vertex="1">
                    <mxGeometry y="195" width="140" height="20" as="geometry"/>
                </mxCell>
                <mxCell id="7" value="" style="line;strokeWidth=1;fillColor=none;align=left;verticalAlign=middle;spacingTop=-1;spacingLeft=3;spacingRight=3;rotatable=0;labelPosition=right;points=[];portConstraint=eastwest;" parent="2" vertex="1">
                    <mxGeometry y="215" width="140" height="8" as="geometry"/>
                </mxCell>
                <mxCell id="8" value="operations" style="text;html=1;strokeColor=none;fillColor=none;align=center;verticalAlign=middle;spacingLeft=4;spacingRight=4;overflow=hidden;rotatable=0;points=[[0,0.5],[1,0.5]];portConstraint=eastwest;" parent="2" vertex="1">
                    <mxGeometry y="223" width="140" height="20" as="geometry"/>
                </mxCell>
                <mxCell id="9" value="operation1" style="text;html=1;strokeColor=none;fillColor=none;align=left;verticalAlign=middle;spacingLeft=4;spacingRight=4;overflow=hidden;rotatable=0;points=[[0,0.5],[1,0.5]];portConstraint=eastwest;" parent="2" vertex="1">
                    <mxGeometry y="243" width="140" height="20" as="geometry"/>
                </mxCell>
                <mxCell id="18" value="public&lt;br&gt;&lt;b&gt;#Person&lt;/b&gt;" style="swimlane;fontStyle=0;align=center;verticalAlign=top;childLayout=stackLayout;horizontal=1;startSize=55;horizontalStack=0;resizeParent=1;resizeParentMax=0;resizeLast=0;collapsible=0;marginBottom=0;html=1;" parent="1" vertex="1">
                    <mxGeometry x="320" y="200" width="280" height="290" as="geometry"/>
                </mxCell>
                <mxCell id="19" value="attributes" style="text;html=1;strokeColor=none;fillColor=none;align=center;verticalAlign=middle;spacingLeft=4;spacingRight=4;overflow=hidden;rotatable=0;points=[[0,0.5],[1,0.5]];portConstraint=eastwest;" parent="18" vertex="1">
                    <mxGeometry y="55" width="280" height="20" as="geometry"/>
                </mxCell>
                <mxCell id="20" value="#String firstName" style="text;html=1;strokeColor=none;fillColor=none;align=left;verticalAlign=middle;spacingLeft=4;spacingRight=4;overflow=hidden;rotatable=0;points=[[0,0.5],[1,0.5]];portConstraint=eastwest;" parent="18" vertex="1">
                    <mxGeometry y="75" width="280" height="20" as="geometry"/>
                </mxCell>
                <mxCell id="37" value="#String lastName" style="text;html=1;strokeColor=none;fillColor=none;align=left;verticalAlign=middle;spacingLeft=4;spacingRight=4;overflow=hidden;rotatable=0;points=[[0,0.5],[1,0.5]];portConstraint=eastwest;" parent="18" vertex="1">
                    <mxGeometry y="95" width="280" height="20" as="geometry"/>
                </mxCell>
                <mxCell id="23" value="" style="line;strokeWidth=1;fillColor=none;align=left;verticalAlign=middle;spacingTop=-1;spacingLeft=3;spacingRight=3;rotatable=0;labelPosition=right;points=[];portConstraint=eastwest;" parent="18" vertex="1">
                    <mxGeometry y="115" width="280" height="15" as="geometry"/>
                </mxCell>
                <mxCell id="24" value="methods" style="text;html=1;strokeColor=none;fillColor=none;align=center;verticalAlign=middle;spacingLeft=4;spacingRight=4;overflow=hidden;rotatable=0;points=[[0,0.5],[1,0.5]];portConstraint=eastwest;" parent="18" vertex="1">
                    <mxGeometry y="130" width="280" height="20" as="geometry"/>
                </mxCell>
                <mxCell id="41" value="+void walk()" style="text;html=1;strokeColor=none;fillColor=none;align=left;verticalAlign=middle;spacingLeft=4;spacingRight=4;overflow=hidden;rotatable=0;points=[[0,0.5],[1,0.5]];portConstraint=eastwest;" parent="18" vertex="1">
                    <mxGeometry y="150" width="280" height="20" as="geometry"/>
                </mxCell>
                <mxCell id="40" value="+void stand()" style="text;html=1;strokeColor=none;fillColor=none;align=left;verticalAlign=middle;spacingLeft=4;spacingRight=4;overflow=hidden;rotatable=0;points=[[0,0.5],[1,0.5]];portConstraint=eastwest;" parent="18" vertex="1">
                    <mxGeometry y="170" width="280" height="20" as="geometry"/>
                </mxCell>
                <mxCell id="39" value="+void converse()" style="text;html=1;strokeColor=none;fillColor=none;align=left;verticalAlign=middle;spacingLeft=4;spacingRight=4;overflow=hidden;rotatable=0;points=[[0,0.5],[1,0.5]];portConstraint=eastwest;" parent="18" vertex="1">
                    <mxGeometry y="190" width="280" height="20" as="geometry"/>
                </mxCell>
                <mxCell id="95" value="+void setLastName(String lastName)" style="text;html=1;strokeColor=none;fillColor=none;align=left;verticalAlign=middle;spacingLeft=4;spacingRight=4;overflow=hidden;rotatable=0;points=[[0,0.5],[1,0.5]];portConstraint=eastwest;" vertex="1" parent="18">
                    <mxGeometry y="210" width="280" height="20" as="geometry"/>
                </mxCell>
                <mxCell id="93" value="+void setFirstName(String firstName)" style="text;html=1;strokeColor=none;fillColor=none;align=left;verticalAlign=middle;spacingLeft=4;spacingRight=4;overflow=hidden;rotatable=0;points=[[0,0.5],[1,0.5]];portConstraint=eastwest;" vertex="1" parent="18">
                    <mxGeometry y="230" width="280" height="20" as="geometry"/>
                </mxCell>
                <mxCell id="96" value="+String getFirstName()" style="text;html=1;strokeColor=none;fillColor=none;align=left;verticalAlign=middle;spacingLeft=4;spacingRight=4;overflow=hidden;rotatable=0;points=[[0,0.5],[1,0.5]];portConstraint=eastwest;" vertex="1" parent="18">
                    <mxGeometry y="250" width="280" height="20" as="geometry"/>
                </mxCell>
                <mxCell id="97" value="+String getLastName()" style="text;html=1;strokeColor=none;fillColor=none;align=left;verticalAlign=middle;spacingLeft=4;spacingRight=4;overflow=hidden;rotatable=0;points=[[0,0.5],[1,0.5]];portConstraint=eastwest;" vertex="1" parent="18">
                    <mxGeometry y="270" width="280" height="20" as="geometry"/>
                </mxCell>
                <mxCell id="82" style="edgeStyle=none;html=1;exitX=0;exitY=0;exitDx=0;exitDy=0;entryX=1;entryY=0.5;entryDx=0;entryDy=0;endArrow=none;endFill=0;" parent="1" source="42" target="9" edge="1">
                    <mxGeometry relative="1" as="geometry"/>
                </mxCell>
                <mxCell id="42" value="public&lt;br&gt;&lt;b&gt;#Passenger&lt;/b&gt;" style="swimlane;fontStyle=0;align=center;verticalAlign=top;childLayout=stackLayout;horizontal=1;startSize=55;horizontalStack=0;resizeParent=1;resizeParentMax=0;resizeLast=0;collapsible=0;marginBottom=0;html=1;" parent="1" vertex="1">
                    <mxGeometry x="350" y="570" width="140" height="290" as="geometry"/>
                </mxCell>
                <mxCell id="43" value="attributes" style="text;html=1;strokeColor=none;fillColor=none;align=center;verticalAlign=middle;spacingLeft=4;spacingRight=4;overflow=hidden;rotatable=0;points=[[0,0.5],[1,0.5]];portConstraint=eastwest;" parent="42" vertex="1">
                    <mxGeometry y="55" width="140" height="20" as="geometry"/>
                </mxCell>
                <mxCell id="51" value="#String firstName" style="text;html=1;strokeColor=none;fillColor=none;align=left;verticalAlign=middle;spacingLeft=4;spacingRight=4;overflow=hidden;rotatable=0;points=[[0,0.5],[1,0.5]];portConstraint=eastwest;fontColor=#808080;" parent="42" vertex="1">
                    <mxGeometry y="75" width="140" height="20" as="geometry"/>
                </mxCell>
                <mxCell id="52" value="#String lastName" style="text;html=1;strokeColor=none;fillColor=none;align=left;verticalAlign=middle;spacingLeft=4;spacingRight=4;overflow=hidden;rotatable=0;points=[[0,0.5],[1,0.5]];portConstraint=eastwest;fontColor=#808080;" parent="42" vertex="1">
                    <mxGeometry y="95" width="140" height="20" as="geometry"/>
                </mxCell>
                <mxCell id="46" value="" style="line;strokeWidth=1;fillColor=none;align=left;verticalAlign=middle;spacingTop=-1;spacingLeft=3;spacingRight=3;rotatable=0;labelPosition=right;points=[];portConstraint=eastwest;" parent="42" vertex="1">
                    <mxGeometry y="115" width="140" height="15" as="geometry"/>
                </mxCell>
                <mxCell id="47" value="methods" style="text;html=1;strokeColor=none;fillColor=none;align=center;verticalAlign=middle;spacingLeft=4;spacingRight=4;overflow=hidden;rotatable=0;points=[[0,0.5],[1,0.5]];portConstraint=eastwest;" parent="42" vertex="1">
                    <mxGeometry y="130" width="140" height="20" as="geometry"/>
                </mxCell>
                <mxCell id="56" value="+Ticket getTicket" style="text;html=1;strokeColor=none;fillColor=none;align=left;verticalAlign=middle;spacingLeft=4;spacingRight=4;overflow=hidden;rotatable=0;points=[[0,0.5],[1,0.5]];portConstraint=eastwest;" parent="42" vertex="1">
                    <mxGeometry y="150" width="140" height="20" as="geometry"/>
                </mxCell>
                <mxCell id="57" value="+void setTicket" style="text;html=1;strokeColor=none;fillColor=none;align=left;verticalAlign=middle;spacingLeft=4;spacingRight=4;overflow=hidden;rotatable=0;points=[[0,0.5],[1,0.5]];portConstraint=eastwest;" parent="42" vertex="1">
                    <mxGeometry y="170" width="140" height="20" as="geometry"/>
                </mxCell>
                <mxCell id="48" value="+void walk()" style="text;html=1;strokeColor=none;fillColor=none;align=left;verticalAlign=middle;spacingLeft=4;spacingRight=4;overflow=hidden;rotatable=0;points=[[0,0.5],[1,0.5]];portConstraint=eastwest;" parent="42" vertex="1">
                    <mxGeometry y="190" width="140" height="20" as="geometry"/>
                </mxCell>
                <mxCell id="49" value="+void walk()" style="text;html=1;strokeColor=none;fillColor=none;align=left;verticalAlign=middle;spacingLeft=4;spacingRight=4;overflow=hidden;rotatable=0;points=[[0,0.5],[1,0.5]];portConstraint=eastwest;" parent="42" vertex="1">
                    <mxGeometry y="210" width="140" height="20" as="geometry"/>
                </mxCell>
                <mxCell id="50" value="+void converse()" style="text;html=1;strokeColor=none;fillColor=none;align=left;verticalAlign=middle;spacingLeft=4;spacingRight=4;overflow=hidden;rotatable=0;points=[[0,0.5],[1,0.5]];portConstraint=eastwest;" parent="42" vertex="1">
                    <mxGeometry y="230" width="140" height="20" as="geometry"/>
                </mxCell>
                <mxCell id="54" value="+void orderTicket" style="text;html=1;strokeColor=none;fillColor=none;align=left;verticalAlign=middle;spacingLeft=4;spacingRight=4;overflow=hidden;rotatable=0;points=[[0,0.5],[1,0.5]];portConstraint=eastwest;" parent="42" vertex="1">
                    <mxGeometry y="250" width="140" height="20" as="geometry"/>
                </mxCell>
                <mxCell id="55" value="+void checkIn" style="text;html=1;strokeColor=none;fillColor=none;align=left;verticalAlign=middle;spacingLeft=4;spacingRight=4;overflow=hidden;rotatable=0;points=[[0,0.5],[1,0.5]];portConstraint=eastwest;" parent="42" vertex="1">
                    <mxGeometry y="270" width="140" height="20" as="geometry"/>
                </mxCell>
                <mxCell id="61" value="public&lt;br&gt;&lt;b&gt;#Employee&lt;/b&gt;" style="swimlane;fontStyle=0;align=center;verticalAlign=top;childLayout=stackLayout;horizontal=1;startSize=55;horizontalStack=0;resizeParent=1;resizeParentMax=0;resizeLast=0;collapsible=0;marginBottom=0;html=1;" parent="1" vertex="1">
                    <mxGeometry x="570" y="550" width="140" height="310" as="geometry"/>
                </mxCell>
                <mxCell id="62" value="attributes" style="text;html=1;strokeColor=none;fillColor=none;align=center;verticalAlign=middle;spacingLeft=4;spacingRight=4;overflow=hidden;rotatable=0;points=[[0,0.5],[1,0.5]];portConstraint=eastwest;" parent="61" vertex="1">
                    <mxGeometry y="55" width="140" height="20" as="geometry"/>
                </mxCell>
                <mxCell id="75" value="-int employeeID" style="text;html=1;strokeColor=none;fillColor=none;align=left;verticalAlign=middle;spacingLeft=4;spacingRight=4;overflow=hidden;rotatable=0;points=[[0,0.5],[1,0.5]];portConstraint=eastwest;" parent="61" vertex="1">
                    <mxGeometry y="75" width="140" height="20" as="geometry"/>
                </mxCell>
                <mxCell id="63" value="#String firstName" style="text;html=1;strokeColor=none;fillColor=none;align=left;verticalAlign=middle;spacingLeft=4;spacingRight=4;overflow=hidden;rotatable=0;points=[[0,0.5],[1,0.5]];portConstraint=eastwest;fontColor=#808080;" parent="61" vertex="1">
                    <mxGeometry y="95" width="140" height="20" as="geometry"/>
                </mxCell>
                <mxCell id="64" value="#String lastName" style="text;html=1;strokeColor=none;fillColor=none;align=left;verticalAlign=middle;spacingLeft=4;spacingRight=4;overflow=hidden;rotatable=0;points=[[0,0.5],[1,0.5]];portConstraint=eastwest;fontColor=#808080;" parent="61" vertex="1">
                    <mxGeometry y="115" width="140" height="20" as="geometry"/>
                </mxCell>
                <mxCell id="65" value="" style="line;strokeWidth=1;fillColor=none;align=left;verticalAlign=middle;spacingTop=-1;spacingLeft=3;spacingRight=3;rotatable=0;labelPosition=right;points=[];portConstraint=eastwest;" parent="61" vertex="1">
                    <mxGeometry y="135" width="140" height="15" as="geometry"/>
                </mxCell>
                <mxCell id="66" value="methods" style="text;html=1;strokeColor=none;fillColor=none;align=center;verticalAlign=middle;spacingLeft=4;spacingRight=4;overflow=hidden;rotatable=0;points=[[0,0.5],[1,0.5]];portConstraint=eastwest;" parent="61" vertex="1">
                    <mxGeometry y="150" width="140" height="20" as="geometry"/>
                </mxCell>
                <mxCell id="67" value="+Ticket getTicket" style="text;html=1;strokeColor=none;fillColor=none;align=left;verticalAlign=middle;spacingLeft=4;spacingRight=4;overflow=hidden;rotatable=0;points=[[0,0.5],[1,0.5]];portConstraint=eastwest;" parent="61" vertex="1">
                    <mxGeometry y="170" width="140" height="20" as="geometry"/>
                </mxCell>
                <mxCell id="68" value="+void setTicket" style="text;html=1;strokeColor=none;fillColor=none;align=left;verticalAlign=middle;spacingLeft=4;spacingRight=4;overflow=hidden;rotatable=0;points=[[0,0.5],[1,0.5]];portConstraint=eastwest;" parent="61" vertex="1">
                    <mxGeometry y="190" width="140" height="20" as="geometry"/>
                </mxCell>
                <mxCell id="69" value="+void walk()" style="text;html=1;strokeColor=none;fillColor=none;align=left;verticalAlign=middle;spacingLeft=4;spacingRight=4;overflow=hidden;rotatable=0;points=[[0,0.5],[1,0.5]];portConstraint=eastwest;" parent="61" vertex="1">
                    <mxGeometry y="210" width="140" height="20" as="geometry"/>
                </mxCell>
                <mxCell id="70" value="+void help()" style="text;html=1;strokeColor=none;fillColor=none;align=left;verticalAlign=middle;spacingLeft=4;spacingRight=4;overflow=hidden;rotatable=0;points=[[0,0.5],[1,0.5]];portConstraint=eastwest;" parent="61" vertex="1">
                    <mxGeometry y="230" width="140" height="20" as="geometry"/>
                </mxCell>
                <mxCell id="71" value="+void converse()" style="text;html=1;strokeColor=none;fillColor=none;align=left;verticalAlign=middle;spacingLeft=4;spacingRight=4;overflow=hidden;rotatable=0;points=[[0,0.5],[1,0.5]];portConstraint=eastwest;" parent="61" vertex="1">
                    <mxGeometry y="250" width="140" height="20" as="geometry"/>
                </mxCell>
                <mxCell id="72" value="+int getEmployeeID" style="text;html=1;strokeColor=none;fillColor=none;align=left;verticalAlign=middle;spacingLeft=4;spacingRight=4;overflow=hidden;rotatable=0;points=[[0,0.5],[1,0.5]];portConstraint=eastwest;" parent="61" vertex="1">
                    <mxGeometry y="270" width="140" height="20" as="geometry"/>
                </mxCell>
                <mxCell id="73" value="+void checkIn" style="text;html=1;strokeColor=none;fillColor=none;align=left;verticalAlign=middle;spacingLeft=4;spacingRight=4;overflow=hidden;rotatable=0;points=[[0,0.5],[1,0.5]];portConstraint=eastwest;" parent="61" vertex="1">
                    <mxGeometry y="290" width="140" height="20" as="geometry"/>
                </mxCell>
                <mxCell id="98" value="public&lt;br&gt;&lt;b&gt;#main&lt;/b&gt;" style="swimlane;fontStyle=0;align=center;verticalAlign=top;childLayout=stackLayout;horizontal=1;startSize=55;horizontalStack=0;resizeParent=1;resizeParentMax=0;resizeLast=0;collapsible=0;marginBottom=0;html=1;" vertex="1" parent="1">
                    <mxGeometry x="190" y="20" width="140" height="95" as="geometry"/>
                </mxCell>
                <mxCell id="108" value="operations" style="text;html=1;strokeColor=none;fillColor=none;align=center;verticalAlign=middle;spacingLeft=4;spacingRight=4;overflow=hidden;rotatable=0;points=[[0,0.5],[1,0.5]];portConstraint=eastwest;" vertex="1" parent="98">
                    <mxGeometry y="55" width="140" height="20" as="geometry"/>
                </mxCell>
                <mxCell id="109" value="+void static main()" style="text;html=1;strokeColor=none;fillColor=none;align=left;verticalAlign=middle;spacingLeft=4;spacingRight=4;overflow=hidden;rotatable=0;points=[[0,0.5],[1,0.5]];portConstraint=eastwest;" vertex="1" parent="98">
                    <mxGeometry y="75" width="140" height="20" as="geometry"/>
                </mxCell>
            </root>
        </mxGraphModel>
    </diagram>
</mxfile>